<svg width="46" height="48" viewBox="0 0 46 48" fill="none" xmlns="http://www.w3.org/2000/svg">
<path d="M43.6097 22.1908C40.8678 13.5098 30.1977 -7.71024 15.4833 3.2355C5.33333 10.784 0.811454 26.4343 0.697993 38.5574C0.662537 42.2997 1.9177 45.7655 5.68081 47.1343C9.82684 48.6402 14.2802 44.8908 16.6014 41.8718C18.0976 39.9262 19.3552 38.2051 21.8938 37.555C26.9168 36.2689 28.7842 41.3446 31.2922 44.3423C34.8047 48.5409 42.3853 47.6378 44.5812 42.399C46.9119 36.8387 45.2738 27.4603 43.6121 22.1931L43.6097 22.1908ZM27.4723 19.926C27.3872 20.4153 27.2714 20.9023 27.061 21.3633C26.5315 22.5265 25.3638 23.4934 23.9219 23.8291C22.4801 24.1648 20.7971 23.8149 19.7877 22.8811C18.9651 22.1199 18.6366 21.0418 18.7619 20.0324C18.8871 19.0205 19.4308 18.0725 20.1565 17.2616C21.9057 15.3065 25.5293 13.8455 27.1769 16.9047C27.6827 17.8432 27.6496 18.9165 27.4723 19.9283V19.926Z" fill="#030326"/>
</svg>
