<svg width="35" height="46" viewBox="0 0 35 46" fill="none" xmlns="http://www.w3.org/2000/svg">
<path d="M3.26189 11.0791C-0.432671 17.604 -0.737597 26.2447 2.41093 32.9966C3.04915 34.3678 3.83865 35.668 4.77942 36.8524C9.61095 42.9305 22.692 48.888 30.2962 44.1575C36.0165 40.5995 35.7069 31.7838 30.3388 28.5332C27.2423 26.6585 17.8605 24.9209 20.1415 18.448C22.5785 11.533 29.3791 15.6394 32.6411 11.9515C33.7544 10.6938 33.8017 9.00344 33.4779 7.42895C32.5796 3.07903 27.6205 1.31542 23.4744 0.885153C15.9884 0.109731 8.19979 3.5022 3.98993 9.88761C3.73464 10.2753 3.49117 10.6725 3.26189 11.0791Z" fill="#030326"/>
</svg>
