<svg width="38" height="47" viewBox="0 0 38 47" fill="none" xmlns="http://www.w3.org/2000/svg">
<path d="M2.54005 36.37C5.25838 42.3677 11.2741 45.4647 18.2591 45.9233C24.6909 46.3465 32.9617 46.2921 35.9447 40.2329C38.3652 35.318 33.432 32.805 29.364 32.7577C26.9624 32.7293 20.8757 32.3605 22.6344 28.2801C23.5444 26.1713 27.2697 26.6843 28.7896 25.254C33.2713 21.0365 22.9748 19.4857 23.1355 16.0436C23.3317 11.8615 28.5272 13.4714 33.0491 12.2657C36.8595 11.2492 38.5449 6.39097 35.5382 3.79284C33.0042 1.60133 28.9834 1.16161 25.8113 0.650965C19.8262 -0.31122 12.5648 -0.349045 7.47558 3.47369C1.63 7.86144 0.49776 18.1216 0.431575 24.8947C0.393754 28.7955 0.91851 32.8002 2.53769 36.3747L2.54005 36.37Z" fill="#030326"/>
</svg>
