<svg width="52" height="47" viewBox="0 0 52 47" fill="none" xmlns="http://www.w3.org/2000/svg">
<path d="M0.573268 34.1469C0.407804 37.0476 0.455078 40.5607 1.79769 43.1942C2.85902 45.277 5.20624 46.9011 7.47781 46.3479C11.1818 45.4449 13.2194 42.4827 13.7796 39.1587C14.0703 37.4377 16.427 25.4541 20.4714 31.5913C21.8259 33.6481 22.0362 36.3928 24.6789 37.1374C27.0403 37.8018 29.111 36.4377 30.6829 34.8112C32.2311 33.2083 34.5523 29.2036 37.039 31.4329C38.6346 32.8632 38.6913 36.5653 38.9135 38.5606C39.3011 42.0666 38.878 44.9697 43.4543 45.991C47.7161 46.9437 50.0444 44.1872 50.7228 40.2651C51.5147 35.693 51.198 31.0192 51.0727 26.4068C50.9545 22.0333 50.8198 17.6857 50.3021 13.3358C49.6922 8.20573 45.9717 -0.378283 39.5375 1.81796C36.207 2.95508 33.6187 6.75654 32.2831 9.60763C30.2479 13.9576 27.6833 15.8819 24.3385 11.1727C21.3082 6.90548 18.3393 0.607542 11.9288 0.716291C6.40231 0.810854 4.47348 8.98588 3.39088 13.1538C1.61569 19.9931 0.970382 27.1137 0.568543 34.1492L0.573268 34.1469Z" fill="#030326"/>
</svg>
