<svg width="53" height="46" viewBox="0 0 53 46" fill="none" xmlns="http://www.w3.org/2000/svg">
<path d="M52.518 33.1467C52.4542 36.5321 51.9838 41.0427 49.308 43.5345C45.3062 47.2627 40.4581 43.6054 39.0635 39.2886C38.2504 36.7685 40.2099 27.3641 36.1182 27.3003C32.6364 27.2459 29.8708 33.8937 26.337 33.7968C22.9119 33.7022 20.7136 28.2223 17.064 29.3381C13.62 30.3925 14.5466 35.5179 14.2416 38.2058C13.854 41.6125 10.9749 46.4423 6.90215 45.2839C3.40614 44.291 2.55756 40.4966 1.94062 37.3831C0.498721 30.0923 0.0165119 22.5579 1.02347 15.1749C1.75624 9.78001 4.30437 0.737368 11.2704 0.924131C12.8328 0.966685 14.3315 1.64281 15.5653 2.60264C17.8818 4.39934 19.4915 7.06604 20.8602 9.61216C21.4936 10.7918 22.3091 11.9668 23.5359 12.5011C27.6111 14.2741 29.6817 6.52702 31.4711 4.28823C34.5676 0.415852 40.4605 -0.822931 44.356 2.71848C52.3289 9.96914 52.7118 23.1229 52.5227 33.1443L52.518 33.1467Z" fill="#030326"/>
</svg>
