<svg width="50" height="47" viewBox="0 0 50 47" fill="none" xmlns="http://www.w3.org/2000/svg">
<path d="M0.706853 32.5442C0.562663 37.3338 1.13705 43.1897 5.42728 45.4001C9.45986 47.4758 13.7288 44.3244 14.6885 40.3409C15.1636 38.3669 15.6056 31.7002 19.1702 33.7593C23.3186 36.1565 26.2662 39.9178 29.9489 42.9012C33.4308 45.7192 37.8061 46.5443 41.6992 43.958C46.1384 41.0076 47.0106 35.225 47.7079 30.2226C48.3343 25.7285 48.7432 21.2036 48.9205 16.6693C49.0363 13.6858 49.1829 10.4565 48.3816 7.48955C47.6441 4.75903 45.2165 0.47057 41.7891 1.18925C37.513 2.08761 37.1041 11.7118 33.0289 14.875C30.3082 16.9861 27.5734 14.596 25.8998 12.4187C22.8057 8.39027 19.9101 3.60772 15.036 1.56278C10.9821 -0.137001 7.64448 1.59115 6.13404 5.65738C3.29044 13.3076 1.51762 21.3573 0.884135 29.4969C0.813222 30.4212 0.742311 31.4543 0.709219 32.5465L0.706853 32.5442Z" fill="#030326"/>
</svg>
