<svg width="42" height="46" viewBox="0 0 42 46" fill="none" xmlns="http://www.w3.org/2000/svg">
<path d="M27.2326 44.3181C37.3046 40.5781 42.9705 31.0531 40.914 20.5779C39.5525 13.6416 35.3757 5.47133 28.9699 2.36728C22.8242 -0.611476 14.0617 -0.590199 8.73379 4.10725C0.113148 11.7054 -1.13492 26.176 3.23804 36.1052C7.06734 44.8027 18.4559 47.415 26.9158 44.4339C27.0222 44.3961 27.1309 44.3582 27.2373 44.3181H27.2326ZM15.7423 19.644C17.3946 15.9111 20.9946 14.2894 23.9588 16.8591C27.3295 19.7812 26.3225 25.0649 23.0511 26.5779C18.8554 28.5188 13.7568 24.4077 15.6974 19.7457C15.7116 19.7126 15.7258 19.6771 15.74 19.644H15.7423Z" fill="#030326"/>
</svg>
