<svg width="41" height="48" viewBox="0 0 41 48" fill="none" xmlns="http://www.w3.org/2000/svg">
<path d="M36.188 33.7835C34.966 32.904 33.3042 32.1002 32.4911 30.7953C31.425 29.086 32.6566 27.4453 34.0748 26.4666C37.9632 23.7857 40.0102 20.5895 39.8755 15.7029C39.7597 11.5326 37.9892 7.00778 34.4767 4.55386C28.6051 0.452163 19.54 -0.313805 12.6875 0.849327C3.1639 2.47109 0.703228 11.9251 0.230475 20.3483C-0.0673587 25.6321 -0.265915 31.7764 0.88051 36.9372C1.73619 40.7883 3.26791 45.3202 7.09011 47.1737C13.4203 50.2399 14.1199 44.0318 17.129 40.6322C22.1567 34.9513 27.2506 48.637 35.6443 47.1689C38.4643 46.6772 40.3411 44.1453 40.6721 41.3226C41.0786 37.8568 38.7149 35.5991 36.1904 33.7835H36.188ZM19.5093 22.2798C16.9872 22.7786 12.9333 21.8755 13.3683 18.5635C13.4274 18.1095 13.5763 17.6556 13.7937 17.2183C14.6825 15.4287 16.7083 13.8944 18.4362 13.58C20.7148 13.1639 23.0006 14.5681 22.9391 17.0575C22.8871 19.1734 21.7431 21.8354 19.5069 22.2774L19.5093 22.2798Z" fill="#030326"/>
</svg>
