<svg width="42" height="47" viewBox="0 0 42 47" fill="none" xmlns="http://www.w3.org/2000/svg">
<path d="M41.2804 10.1742C41.3537 12.4555 40.3632 14.5099 38.2902 15.5856C34.806 17.3965 30.2298 15.8362 28.7666 20.4296C27.4122 24.6779 28.7973 29.6543 28.457 34.0515C28.1071 38.5882 26.8425 44.463 21.7888 45.8176C16.364 47.2739 12.5961 43.5551 11.9603 38.2123C11.4615 34.035 12.4945 29.7891 12.3007 25.6141C12.1777 22.9426 13.1563 19.6495 11.6979 17.3114C10.438 15.2901 6.91365 15.4343 4.99428 14.5643C-0.957672 11.8692 0.0705584 4.32307 5.38666 1.98971C10.2324 -0.13797 15.6596 -0.0292246 20.8267 0.214277C27.9819 0.552342 40.9565 0.12208 41.278 10.1718L41.2804 10.1742Z" fill="#030326"/>
</svg>
