<svg width="45" height="47" viewBox="0 0 45 47" fill="none" xmlns="http://www.w3.org/2000/svg">
<path d="M1.27387 14.6088C2.23119 19.8807 7.19036 22.493 10.6982 25.9469C15.1326 30.3134 12.2984 36.3773 14.5795 41.4506C17.0496 46.9401 26.3534 48.167 29.0457 42.271C30.5774 38.9163 30.4805 35.0936 31.8633 31.6893C33.6527 27.285 37.9807 26.4765 40.8645 23.1597C45.2588 18.1076 47.4216 6.08858 40.8031 1.74575C38.6899 0.36039 35.9195 0.320201 33.6928 1.46915C30.6105 3.06018 30.5609 6.00347 28.8046 8.62525C26.9987 11.3179 23.4861 12.3794 20.9025 10.0839C17.806 7.33446 17.3616 2.71502 13.0856 1.21383C9.85432 0.079063 5.46009 0.700819 3.24997 3.49281C1.03749 6.2848 0.541105 10.5543 1.27623 14.604L1.27387 14.6088Z" fill="#030326"/>
</svg>
